<svg id="Capa_1" data-name="Capa 1" xmlns="http://www.w3.org/2000/svg" viewBox="0 0 1366 100"><defs><style>.cls-1{fill:#e22929;}.cls-2{fill:#2176aa;}.cls-3{fill:#a82265;}</style></defs><title>0</title><path d="M54.57-29.95a914.87,914.87,0,0,0,110.87,161.4c12.61,14.68,40,54.84,60.08,28,9.47-12.67,17-27.13,25.69-40.35q13.66-20.76,28.22-40.89A1148.62,1148.62,0,0,1,352.77-13l-2.36-.3C360.91,3,353.31,23.06,354,41a50.69,50.69,0,0,0,15,34.12c19.73,19.89,50.8,25.23,77.18,18.23,36.38-9.66,64.57-36.09,94.85-56.9,16-11,33.16-21,51.95-26.31,16-4.52,41.65-8.22,54.74,5.11,17.61,17.94-15,45-28.1,55.36a160.08,160.08,0,0,1-57.82,28.8l1.69,2.2c32.06-45.81,86-68.14,138.81-80.08C766.59,7,834.14,3.07,899.92,6.13a814.8,814.8,0,0,1,117,14l-.36-2.75C1005,26.17,990.79,29,976.71,31.16c-17.4,2.73-34.89,4.94-52.4,6.79-32.91,3.46-65.95,5.57-99,7C758,47.8,690.45,48.56,623.05,49.32c-67.85.78-135.72.67-203.53-1.85C353.91,45,288,41,223.41,28.89,153,15.72,85.45-8.31,23.69-44.78L23.33-42c24.06-4,48.37-1.46,72.19,3,22.86,4.27,45.55,9.6,68.26,14.58q68,14.91,135.94,30.1c91,20.22,182,40.31,273.37,58.8,91.14,18.44,182.64,35.49,274.65,49,90.19,13.28,181.52,22.5,272.76,17.79,22.28-1.15,44.5-3.14,66.61-6.1q17.1-2.3,34.08-5.36c7.23-1.31,17.19-1.74,21.58-8.68,4.59-7.24,3.17-19.29,3.68-27.4l2.21-35.32L1253-21l2.22-35.31c.12-1.93-2.88-1.92-3,0l-8.7,138.82c-.33,5.28-.65,10.55-1,15.83-.51,7.79-1.92,13.8-10.37,16.25-10.17,3-21.29,4.06-31.74,5.66-23,3.51-46.08,5.92-69.26,7.4-90.88,5.81-182-2.63-272-15.52-90.82-13-181.12-29.69-271.06-47.72S408.84,26.77,319.43,6.93Q252.65-7.89,185.86-22.69q-33.65-7.43-67.34-14.73c-21.41-4.61-43.07-9-65-9.61a161.22,161.22,0,0,0-30.95,2.1c-1.32.22-1.39,2.13-.36,2.74A602.66,602.66,0,0,0,199.82,27.16C263.12,41,328,46.31,392.57,49.34c69,3.24,138.11,3.77,207.17,3.21,68.72-.55,137.51-1.47,206.2-3.87,37.91-1.32,75.81-3.42,113.56-7.24,18.59-1.88,37.14-4.18,55.61-7,15.11-2.32,30.52-5,43-14.44.91-.7,1-2.47-.36-2.75a819.28,819.28,0,0,0-212.47-13C745.82,8.39,683,16.55,629,43.39c-26.87,13.35-50.82,32-68.11,56.68-.77,1.11.51,2.52,1.7,2.2a163.15,163.15,0,0,0,50.82-23.4C627.62,69,643,56.14,651.5,40.73,659,27.1,654.89,13.1,640.38,7,624.57.4,605,3.15,589.16,8.1,550.93,20,521.93,48.79,488.92,70c-30.6,19.67-67.67,32.5-102.12,14.41-16-8.4-28.4-23-29.72-41.52-1.36-19.19,7.2-40.2-4.08-57.69a1.52,1.52,0,0,0-2.35-.3A1150.46,1150.46,0,0,0,237.59,134.65c-4.11,6.48-8,13.07-12.14,19.54-4.77,7.52-11.2,13.86-20.89,10.62-7.65-2.56-13.49-9.12-18.76-14.9s-10.31-11.43-15.36-17.25a906,906,0,0,1-58.55-75.17A914.9,914.9,0,0,1,57.16-31.46c-.92-1.7-3.51-.19-2.59,1.51Z"/><path class="cls-1" d="M309.75-39.41c-17.36-2.37-31.48,8.88-42.7,20.86-14,14.94-26.74,31.29-39.11,47.59a819.42,819.42,0,0,0-69.43,108.09q-17.38,32.38-31.8,66.23c-.45,1.06.32,2.69,1.7,2.2Q282.7,150.11,433.29,85C533.83,41.52,632.64-5.56,730.46-54.82c47.79-24.06,95.66-48.05,144.85-69.14,25.15-10.78,50.65-20.78,76.56-29.6q9.2-3.13,18.45-6.06c6.23-2,13.07-4.78,19.68-4.69,13.47.17,20.84,14.33,28.21,23.61,57.84,72.81,144,114.56,209.63,179.15,59.79,58.86,105.52,136.55,181.47,176.9a219,219,0,0,0,26.56,11.86,1.51,1.51,0,0,0,1.46-2.51c-100.52-89.19-229.9-139-361.08-161.45-76.38-13.09-154-17.48-231.41-17.53-78,0-155.68,5.58-233.59,8.08-42.49,1.37-85.39.77-127.26-7.32-10.22-2-20.71-4.11-30.6-7.39-6.13-2-10.55-5.09-12.39-11.49C439.4,22,439.2,15.77,438.7,10A278.36,278.36,0,0,1,441-56.4c.29-1.89-2.6-2.7-2.89-.8A282.4,282.4,0,0,0,435,.09a212.09,212.09,0,0,0,2.35,24.53c1.09,6.51,3.33,11.74,9.29,15,6.59,3.62,14.87,4.91,22.13,6.63q14.32,3.4,28.9,5.6A484.36,484.36,0,0,0,554.36,57c38.37,1.34,76.74-.86,115-2.84,39.66-2,79.35-3.82,119.06-4.73,150.62-3.48,304.23,5.84,446.51,59.32,73,27.43,141.8,66.27,200.23,118.11l1.46-2.51c-83.14-30.81-132.93-109.94-191.05-171.91-31.12-33.17-66.83-60.81-103.27-87.82-38-28.14-76.53-56.24-108.41-91.4-7.48-8.25-14.28-17-21.08-25.75-5.81-7.52-12.7-14.68-22.86-14.74-11.77-.07-24.5,6-35.48,9.69q-19,6.38-37.66,13.55c-49.3,18.88-97.1,41.44-144.37,64.86C674-30.42,575.94,18.71,475.45,63.28q-152.38,67.6-308.92,125.23-19.44,7.16-38.92,14.16l1.69,2.2A822.1,822.1,0,0,1,255.37-.54c13.17-15.68,30.3-39.16,53.58-36,1.89.26,2.71-2.63.8-2.89Z"/><path class="cls-2" d="M6.82-44.52,77.69,155.34a1.52,1.52,0,0,0,2.51.66A1205.12,1205.12,0,0,1,290.85-10.66c74-46.07,156.27-83.9,245.28-81.44,85.69,2.38,166.19,36.57,245.51,65.61,40,14.64,80.43,28.41,122.16,37.22C944.15,19.26,985.4,24,1025,36c19.76,6,39,13.89,56.52,24.86,15.4,9.62,29.81,24,48.44,26.77,10.15,1.54,19.83-1.34,29.11-5.23,10.4-4.36,20.62-8.95,31.33-12.53a269.9,269.9,0,0,1,67.68-13.34,276.29,276.29,0,0,1,34.17-.1v-3c-57.64-2.21-113.78,12.19-169.76,23.81-28.91,6-58,11.2-87.5,13.11a527.26,527.26,0,0,1-88.75-2.19c-61-6.4-120.73-21.5-179.76-37.75C710.27,34.88,653.62,19.86,599.22-1.22c-27.65-10.72-55.88-22.35-79.06-41.28-20-16.31-36-38.83-32.84-65.74l-2.8.76C509.21-58.31,496.31,3.86,532.18,48.29c34.41,42.62,95.81,54.28,146.69,63.45,132.16,23.8,267.63,14.92,400.05-2,15.86-2,32.89-2.59,46.53-11.86s25.65-22.31,37.23-34.13A637.6,637.6,0,0,0,1230-17.57c1.11-1.59-1.49-3.09-2.59-1.51a633.52,633.52,0,0,1-59.6,73.24c-10.34,10.91-21,21.48-32.16,31.59-5.61,5.11-11.45,10.15-18.33,13.47-7.77,3.75-16.51,4.7-25,5.82-64.41,8.55-129.18,15.18-194.15,17.42-65.29,2.25-130.9,0-195.55-9.81-29.83-4.51-59.87-10.11-88.75-18.94-24.49-7.49-48.91-18-68.09-35.38C497.7,14.73,514.09-55.25,487.11-109c-.73-1.48-2.64-.57-2.79.75-5.4,46.53,41.29,77.92,78.12,94.78,54.43,24.91,112.21,41.25,169.7,57.37,59.94,16.81,120.12,33.65,181.76,43,59.68,9.08,119.3,9.65,178.81-.91,66.2-11.74,131.6-32.25,199.51-29.64,1.94.08,1.92-2.89,0-3-44.62-2.54-88.29,6.06-129.14,24-11.44,5-23,9.54-35.7,6.69-10.3-2.32-19.34-8.52-27.85-14.5C1083.14,58,1066.46,48,1047.75,40.66c-38.71-15.25-80.29-20.92-121-28.46-42.12-7.8-82.92-19.7-123.28-34C723.59-50.07,644.25-85.88,558.89-93.72a336.52,336.52,0,0,0-125.43,12.3C392-69.34,352.84-50.54,315.56-29,238.68,15.41,167.07,69.78,102.34,130.48Q90.06,142,78.08,153.88l2.51.66L9.71-45.32c-.64-1.8-3.54-1-2.89.8Z"/><path class="cls-3" d="M122.89-69.31C136-28.79,166.19,3.18,202.09,25c42.15,25.66,91.1,36.23,139.59,41.89,27.41,3.2,55,4.91,82.46,7.07,28.65,2.25,57.26,4.88,85.9,7.29,57.6,4.86,115.39,8.91,173.23,7.44C789.74,86,894.47,62.3,994.48,26.49c49.49-17.72,97.91-38.34,145.37-60.88,24.07-11.43,47.51-24.42,71.88-35.17,25.12-11.09,52.34-16.54,78-3.81,22.08,11,39.09,30.38,53.55,49.86a312.86,312.86,0,0,1,37.64,66.27c9.55,23,17,47.57,20.09,72.32,3.31,26.91-1.86,51.8-22,71-18,17.09-40.61,30.34-62,42.59a606.83,606.83,0,0,1-71,34.45c-47.41,19.42-96.93,33.37-147.08,43.58C992.71,328.29,880.52,335.26,776.44,300c-85.62-29-160.83-83-223.05-147.86C486.73,82.67,435.22.89,392.94-85.26c-47.51-96.81-83.95-198.45-122.53-299-9.35-24.35-18.83-48.65-28.61-72.84-.71-1.75-3.57-1-2.89.8,54,144.89,64.27,301.94,72,455,4.06,79.85,6.88,160,6.08,240-.39,38.89-2.82,78.2-13.6,115.76C299,369.94,287.7,396,268,380.38c-13.62-10.84-25.6-24.8-37.48-37.46-49.52-52.77-95-112-129.36-175.86C84.4,135.82,69.46,95.74,88.05,61.92c16.06-29.22,50.3-43.83,79.18-57C302.87-57.13,452.45-80.18,600-92c156.56-12.58,314.24-12.94,469.8-36.51q29.07-4.41,57.93-10l-1.89-1.45a1353,1353,0,0,0,10.93,165.75q5.07,39.51,12.46,78.68c4.58,24.25,9.29,48.7,17,72.21s18.63,45.69,35.82,63.57c1.34,1.39,3.46-.73,2.12-2.13C1171.25,204,1162,154.85,1153.31,110a1341.29,1341.29,0,0,1-21-159.21q-3.26-45.28-3.43-90.7a1.53,1.53,0,0,0-1.9-1.45C964.24-110.11,798.1-109.06,633.37-97.53,482.06-86.95,328.52-66.85,187.75-7.39c-17.05,7.2-34,14.82-50.41,23.4-13.84,7.24-27.46,15.58-38.51,26.75-23.76,24-26.4,56.82-16.68,87.92C92.88,165,114,196.2,133.78,225.87a927.67,927.67,0,0,0,66.57,87.83Q219,335.47,238.93,356q9.36,9.65,19,19c5.5,5.34,11.46,12,19.5,13.11,12.47,1.71,20.64-10.47,24.8-20.48,6.87-16.56,10.1-35.27,12.7-52.91,5.65-38.35,5.37-77.24,5-115.91q-.57-62.41-2.75-124.81c-2.89-82.2-7.26-164.52-15.37-246.39-7.66-77.28-19.51-154.47-41.48-229.09q-8.28-28.17-18.55-55.69l-2.89.8c40.67,100.58,76,203.3,119.27,302.81,39.89,91.66,87,180.81,150,258.8,57,70.5,126.59,132.46,208.22,172.92a467.3,467.3,0,0,0,133.63,43c55.08,8.82,111.3,8,166.59,1.66,103.14-11.86,207.88-38.78,298.8-90,21.37-12,43.2-25.09,61.77-41.23,17.82-15.5,27.47-35.11,27.83-58.85.37-24.36-6.33-49.29-14.16-72.16a315.75,315.75,0,0,0-31.22-65.51c-22.77-36.3-57.38-81-105-79.22-25.12,1-48.1,13.25-70,24.35q-36.39,18.4-73.49,35.36C1011.86,20.84,907.81,57.19,799.9,74.73c-55.84,9.07-112.22,12.35-168.75,11C572,84.24,513,78.49,454.07,73.47,353.49,64.9,234,67.26,159.72-13a154.09,154.09,0,0,1-33.94-57.11c-.59-1.83-3.49-1-2.89.8Z"/></svg>